<svg xmlns="http://www.w3.org/2000/svg" viewBox="0 0 128 128" role="img" aria-labelledby="title desc">
  <title id="title">SINCLAIR mark</title>
  <desc id="desc">A compact sensor-fusion monogram combining an S curve, radar arcs, camera field, and lidar points.</desc>
  <defs>
    <linearGradient id="sGrad" x1="22" y1="20" x2="104" y2="108" gradientUnits="userSpaceOnUse">
      <stop offset="0" stop-color="#EAF7FF"/>
      <stop offset="0.38" stop-color="#63E6FF"/>
      <stop offset="1" stop-color="#3B82F6"/>
    </linearGradient>
    <linearGradient id="beamGrad" x1="18" y1="20" x2="112" y2="96" gradientUnits="userSpaceOnUse">
      <stop offset="0" stop-color="#38BDF8" stop-opacity="0.72"/>
      <stop offset="1" stop-color="#8B5CF6" stop-opacity="0.52"/>
    </linearGradient>
    <filter id="softGlow" x="-30%" y="-30%" width="160%" height="160%">
      <feGaussianBlur stdDeviation="2.2" result="blur"/>
      <feMerge>
        <feMergeNode in="blur"/>
        <feMergeNode in="SourceGraphic"/>
      </feMerge>
    </filter>
  </defs>

  <rect x="8" y="8" width="112" height="112" rx="28" fill="#08111F"/>
  <rect x="8.75" y="8.75" width="110.5" height="110.5" rx="27.25" fill="none" stroke="#1D3559" stroke-width="1.5"/>

  <!-- camera-like field of view -->
  <path d="M25 66 L48 43 L48 89 Z" fill="url(#beamGrad)" opacity="0.22"/>
  <path d="M25 66 L48 43 M25 66 L48 89" fill="none" stroke="#38BDF8" stroke-width="2.8" stroke-linecap="round" opacity="0.72"/>

  <!-- radar-like arcs -->
  <path d="M84 39 C98 51 98 77 84 90" fill="none" stroke="#34D399" stroke-width="3.3" stroke-linecap="round" opacity="0.82"/>
  <path d="M94 28 C116 47 116 81 94 100" fill="none" stroke="#34D399" stroke-width="2.8" stroke-linecap="round" opacity="0.52"/>

  <!-- lidar-like point constellation -->
  <circle cx="42" cy="35" r="3.4" fill="#A78BFA" opacity="0.9"/>
  <circle cx="34" cy="48" r="2.3" fill="#63E6FF" opacity="0.9"/>
  <circle cx="51" cy="93" r="2.6" fill="#A78BFA" opacity="0.76"/>
  <circle cx="73" cy="28" r="2.2" fill="#63E6FF" opacity="0.7"/>

  <!-- Sinclair S scan path -->
  <path filter="url(#softGlow)" d="M88 35 C78 22 49 23 39 36 C29 49 41 60 62 64 C83 68 92 81 80 95 C68 109 39 108 28 93" fill="none" stroke="url(#sGrad)" stroke-width="11.5" stroke-linecap="round" stroke-linejoin="round"/>

  <!-- core sensing node -->
  <circle cx="64" cy="64" r="5.2" fill="#08111F" stroke="#EAF7FF" stroke-width="2.3"/>
</svg>
